<?xml version="1.0" encoding="UTF-8" standalone="no"?>
<!-- Created with Inkscape (http://www.inkscape.org/) -->

<svg
   width="210mm"
   height="297mm"
   viewBox="0 0 210 297"
   version="1.1"
   id="svg5"
   inkscape:version="1.2 (dc2aeda, 2022-05-15)"
   sodipodi:docname="drawing.svg"
   xmlns:inkscape="http://www.inkscape.org/namespaces/inkscape"
   xmlns:sodipodi="http://sodipodi.sourceforge.net/DTD/sodipodi-0.dtd"
   xmlns:xlink="http://www.w3.org/1999/xlink"
   xmlns="http://www.w3.org/2000/svg"
   xmlns:svg="http://www.w3.org/2000/svg">
  <sodipodi:namedview
     id="namedview7"
     pagecolor="#ffffff"
     bordercolor="#000000"
     borderopacity="0.25"
     inkscape:showpageshadow="2"
     inkscape:pageopacity="0.0"
     inkscape:pagecheckerboard="0"
     inkscape:deskcolor="#d1d1d1"
     inkscape:document-units="mm"
     showgrid="false"
     inkscape:zoom="0.914906"
     inkscape:cx="210.40413"
     inkscape:cy="667.28166"
     inkscape:window-width="2276"
     inkscape:window-height="1165"
     inkscape:window-x="0"
     inkscape:window-y="25"
     inkscape:window-maximized="0"
     inkscape:current-layer="layer4" />
  <defs
     id="defs2">
    <linearGradient
       inkscape:collect="always"
       id="linearGradient6383">
      <stop
         style="stop-color:#ff00ff;stop-opacity:1;"
         offset="0"
         id="stop6379" />
      <stop
         style="stop-color:#ff00ff;stop-opacity:0;"
         offset="0.23472668"
         id="stop6381" />
    </linearGradient>
    <meshgradient
       inkscape:collect="always"
       id="meshgradient4182"
       gradientUnits="userSpaceOnUse"
       x="36.876781"
       y="121.23392">
      <meshrow
         id="meshrow4184">
        <meshpatch
           id="meshpatch4186">
          <stop
             path="c 18.6946,0  37.3891,0  56.0837,0"
             style="stop-color:#ffffff;stop-opacity:1"
             id="stop4188" />
          <stop
             path="c 0,22.0541  0,44.1083  0,66.1624"
             style="stop-color:#cccccc;stop-opacity:1"
             id="stop4190" />
          <stop
             path="c -18.6946,0  -37.3891,0  -56.0837,0"
             style="stop-color:#ffffff;stop-opacity:1"
             id="stop4192" />
          <stop
             path="c 0,-22.0541  0,-44.1083  0,-66.1624"
             style="stop-color:#cccccc;stop-opacity:1"
             id="stop4194" />
        </meshpatch>
      </meshrow>
    </meshgradient>
    <linearGradient
       inkscape:collect="always"
       xlink:href="#linearGradient6383"
       id="linearGradient6385"
       x1="27.894532"
       y1="154.73355"
       x2="80.17073"
       y2="154.73355"
       gradientUnits="userSpaceOnUse" />
  </defs>
  <g
     inkscape:groupmode="layer"
     id="layer4"
     inkscape:label="Layer 4">
    <path
       style="fill:url(#linearGradient6385);stroke:none;stroke-width:1.765;stroke-dasharray:none;stroke-opacity:1;fill-opacity:1"
       d="m 40.197664,122.61733 c -1.832854,1.43479 -3.451699,3.12385 -5.205455,4.62707 -0.621038,0.53232 -1.041524,1.30163 -1.735151,1.73515 -1.333582,0.83349 -3.051741,1.47641 -3.759493,2.89192 -0.177747,0.35549 -0.141579,0.78774 -0.289193,1.15677 -0.160107,0.40026 -0.50751,0.73153 -0.578381,1.15676 -0.185688,1.11412 0.124568,2.34918 0,3.47031 -0.130744,1.17669 -0.485733,2.26582 -0.578385,3.4703 -0.140634,1.82824 -0.26866,7.08433 0,8.96494 0.03048,0.21339 0.25871,0.365 0.289192,0.57839 0.09543,0.668 -0.163658,1.36971 0,2.02434 0.05228,0.20911 0.258707,0.365 0.289193,0.57838 0.253867,1.77709 -0.3516,3.73665 0,5.49465 0.04227,0.21136 0.236913,0.36927 0.289192,0.57838 0.157488,0.62996 -0.106749,1.38385 0,2.02434 0.718743,4.31248 -0.109244,-1.41379 0.578382,2.02435 0.09098,0.4549 -0.112467,0.99609 0,1.44596 0.05228,0.20911 0.253756,0.36576 0.289192,0.57838 0.13299,0.79793 -0.197578,1.81241 0,2.60272 0.03306,0.13226 0.256127,0.15694 0.289192,0.2892 0.181454,0.72581 -0.181454,1.58772 0,2.31353 0.571045,2.28418 0.698651,4.65003 1.156766,6.94061 0.523166,2.61583 0.02736,-0.78552 0.578385,0.86757 0.09145,0.27435 -0.107402,0.59907 0,0.86758 0.609827,1.52456 1.674635,2.74936 2.602727,4.04868 0.415629,0.58188 1.404811,2.29296 2.024343,2.60273 0.258659,0.12933 0.58129,-0.0409 0.867574,0 1.485559,0.21222 2.841593,0.28919 4.337878,0.28919 1.038746,0 1.424154,-0.0475 2.602725,0.28919 0.699894,0.19997 -0.08934,0.40048 0.578384,0.28919 0.676725,-0.11278 7.083208,-1.29937 7.229796,-1.44596 0.598349,-0.59834 -0.914355,0.0234 0.289192,-0.57838 1.053584,-0.52679 4.821317,0.63162 6.362221,0.28919 0.982451,-0.21832 2.180272,-0.15593 2.891917,-0.86757 0.06816,-0.0682 -0.06816,-0.22103 0,-0.28919 0.457253,-0.45726 1.121682,-0.66309 1.73515,-0.86758 0.274352,-0.0915 0.608915,0.12933 0.867577,0 0.310991,-0.1555 1.013108,-0.75936 1.445959,-0.86757 0.187039,-0.0468 0.395483,0.061 0.578384,0 0.421563,-0.14053 1.024395,-0.72706 1.445959,-0.86758 0.182901,-0.061 0.389331,0.0378 0.578384,0 0.477483,-0.0955 2.087502,-0.78538 2.313532,-0.86758 2.605522,-0.94746 8.87303,-2.72152 9.543331,-6.07302 0.398719,-1.9936 -1.155333,-4.04439 -1.735151,-5.78384 -1.040567,-3.1217 -2.36134,-9.43459 -5.205452,-11.56767 -0.842796,-0.6321 -1.972075,-0.98604 -2.89192,-1.44596 -0.121933,-0.061 -0.159861,-0.24608 -0.289189,-0.28919 -0.359487,-0.11983 -1.069113,0.0471 -1.445961,0 -0.581832,-0.0727 -1.14879,-0.2892 -1.735151,-0.2892 -0.136327,0 -0.159861,0.24609 -0.28919,0.2892 -0.182901,0.061 -0.38559,0 -0.578384,0 -0.660995,0 -2.267813,-0.31206 -2.89192,0 -0.136789,0.0684 -0.73321,0.57838 -0.867574,0.57838 -0.0964,0 0,-0.19279 0,-0.28919 0,-0.28919 0,-0.57839 0,-0.86758 0,-1.44596 0,-2.89192 0,-4.33787 0,-1.01385 -0.119012,-2.22903 0,-3.18112 0.01691,-0.13527 0.228224,-0.16725 0.289192,-0.28919 0.136327,-0.27265 0.1201,-0.61393 0.289193,-0.86757 0.05347,-0.0802 0.246081,0.0862 0.289189,0 0.172442,-0.34488 -0.105928,-0.78602 0,-1.15677 0.0989,-0.34614 0.623792,-1.82597 0.867577,-2.31353 0.06097,-0.12194 0.256127,-0.15694 0.289192,-0.2892 0.07014,-0.28055 -0.07014,-0.58701 0,-0.86757 0.07324,-0.29295 0.696891,-0.61155 0.867574,-0.86758 0.402347,-0.60352 0.484968,-1.45043 0.867577,-2.02434 0.05347,-0.0802 0.221027,0.0682 0.289192,0 0.296688,-0.29669 -0.289192,-4.31313 -0.289192,-5.78384"
       id="path4032" />
    <path
       style="fill:#000000;stroke:none;stroke-width:1.765;stroke-dasharray:none;stroke-opacity:1"
       d="m 68.53846,134.185 c 0.127759,2.23986 -1.681359,3.67881 -2.891917,5.49465 -0.810948,1.21642 -1.541373,2.52403 -2.313536,3.75949 -0.342725,0.54836 -0.710739,1.10781 -0.867574,1.73515 -0.04676,0.18704 0.08622,0.40595 0,0.57839 -0.121935,0.24386 -0.427143,0.35152 -0.578384,0.57838 -0.487564,0.73135 -1.008393,2.00168 -1.156766,2.89192 -0.368716,2.21229 1.545603,6.88067 2.891917,8.67575 0.643633,0.85818 1.533945,1.62193 2.024343,2.60273 0.705246,1.41049 1.317389,2.92397 2.024343,4.33788 0.155495,0.31099 0.759362,1.0131 0.867574,1.44595 0.04676,0.18704 -0.08622,0.40595 0,0.57839 0.04311,0.0862 0.22103,-0.0682 0.289192,0 0.436456,0.43646 0.720309,1.0095 1.156769,1.44596 0.497684,0.49768 0.568809,1.05399 1.156766,1.44596 0.160414,0.10694 0.399378,-0.0716 0.578384,0 0.973461,0.38938 2.017885,0.71975 2.891917,1.15676 0.709459,0.35473 1.314887,1.09123 2.024343,1.44596 0.172442,0.0862 0.401177,-0.0759 0.578385,0 0.887706,0.38045 1.92759,1.12452 2.891917,1.44596 0.334592,0.11153 0.846008,-0.15538 1.156769,0 0.454911,0.22746 0.327871,0.28919 0.867574,0.28919"
       id="path4034" />
  </g>
  <g
     inkscape:label="Layer 1"
     inkscape:groupmode="layer"
     id="layer1"
     style="display:inline">
    <g
       inkscape:groupmode="layer"
       id="layer3"
       inkscape:label="Layer 3">
      <path
         style="fill:#d45500;stroke:#000000;stroke-width:1.765;stroke-dasharray:none;stroke-opacity:1"
         id="path2463"
         d="m 26.389753,74.578913 c 0.581075,-0.235596 1.149358,-0.505603 1.743226,-0.70679 8.035411,-2.722202 16.511426,-4.043312 24.9595,-4.565634 2.829904,-0.174966 5.668428,-0.157464 8.502642,-0.236196 7.192224,0.240731 14.574284,0.644359 21.336701,3.39308 1.742815,0.708404 3.450344,1.558674 4.983916,2.648352 0.55589,0.394986 0.711285,1.167996 1.136907,1.700792 0.967303,1.210877 2.023512,2.347976 3.035268,3.521964 1.482887,2.165303 2.61864,3.555148 3.62448,5.937155 0.323484,0.766069 0.485759,1.590614 0.728641,2.385923 0,0 3.335065,1.575871 3.335065,1.575871 v 0 C 99.52053,89.406993 99.350501,88.549077 99.009389,87.75412 97.984468,85.36556 96.73538,83.826103 95.243186,81.66968 94.21842,80.47071 93.35826,79.108659 92.168889,78.072767 89.080133,75.382593 84.413089,72.071372 80.380148,70.494162 73.645339,67.860301 66.323394,67.547648 59.196935,67.33827 c -2.840403,0.08212 -5.684568,0.07869 -8.521205,0.246356 -8.66925,0.512419 -17.306015,1.790631 -25.662103,4.186431 -0.649804,0.186306 -1.279836,0.435708 -1.919754,0.653563 0,0 3.29588,2.154293 3.29588,2.154293 z" />
      <path
         style="fill:#d45500;stroke:none;stroke-width:1.765;stroke-dasharray:none;stroke-opacity:1"
         id="path2465"
         d="m 42.798158,105.80011 c 2.346108,-0.28485 4.693028,-0.0881 7.025151,0.26286 1.931209,0.29064 3.856235,0.63127 5.765236,1.04329 5.909299,1.27541 8.980511,2.26559 14.854039,3.94837 6.546712,2.05487 6.78249,2.08668 12.931936,4.16553 1.927344,0.65155 5.903521,1.98955 7.960357,2.89279 0.758235,0.33297 2.397691,0.33596 2.206493,1.14171 -0.185992,0.7838 -1.536925,-0.48331 -2.305386,-0.72497 -0.140033,0.43716 -0.178782,0.92098 -0.4201,1.31147 -0.837957,1.35591 -3.032548,3.371 -3.961789,4.45488 -0.977487,1.14016 -1.949921,2.29149 -2.801546,3.52849 -2.857968,4.15124 -3.536341,6.0297 -5.788004,10.67085 -2.095304,5.40949 -3.162593,7.55195 -4.412445,13.2662 -0.475925,2.17591 -0.875454,4.38079 -1.023324,6.60322 -0.274121,4.11984 -0.176416,7.81005 2.702327,11.14965 1.499952,1.74009 3.677854,2.75398 5.516782,4.13097 3.344744,1.42736 6.576531,3.15559 10.034228,4.28209 2.741562,0.89319 5.63191,1.24874 8.471908,1.74711 5.064309,0.8887 10.683059,1.48125 15.806479,2.06398 9.38581,1.06753 2.9173,0.28973 11.07526,1.29355 1.51807,0.24381 4.78854,0.53848 6.27291,1.52832 0.37005,0.24677 -1.3124,-0.52656 -1.33183,-0.0822 -0.045,1.02954 0.94136,1.84988 1.21106,2.84448 0.70464,2.59859 0.63902,5.10131 0.73483,7.75955 -0.0363,1.16932 -0.0725,2.33864 -0.10879,3.50797 0,0 3.17507,1.62793 3.17507,1.62793 v 0 c 0.0234,-1.18351 0.0468,-2.36702 0.0702,-3.55053 -0.0709,-2.47629 -0.0295,-5.38141 -0.58791,-7.82465 -0.23401,-1.02381 -0.36714,-2.18913 -1.08108,-2.95935 -2.07531,-2.23893 -4.63131,-3.77091 -7.54718,-4.39704 -1.1652,-0.25021 -2.36112,-0.32605 -3.54168,-0.48908 -6.765,-0.71242 -3.15922,-0.34256 -10.81818,-1.10134 -5.06698,-0.528 -10.67259,-1.09392 -15.669132,-1.99727 -2.860582,-0.51718 -5.692851,-1.18312 -8.523729,-1.84383 -1.57762,-0.36821 -3.132418,-0.82812 -4.698627,-1.24218 -1.818446,-1.31279 -3.960672,-2.26622 -5.45534,-3.93839 -2.924887,-3.27223 -3.113249,-6.90301 -2.892674,-11.02206 0.118721,-2.21697 0.497298,-4.41977 0.964023,-6.5903 1.215781,-5.65407 2.336898,-7.85049 4.446296,-13.18017 2.362785,-4.68897 2.941455,-6.34801 5.957626,-10.48449 0.882504,-1.2103 1.889048,-2.32707 2.896086,-3.4359 0.750134,-0.82596 3.510704,-3.35241 4.243113,-4.48011 0.316807,-0.48778 0.394602,-1.0943 0.591904,-1.64145 -1.36444,-1.03305 -2.66755,-2.15254 -4.093318,-3.09916 -1.184555,-0.78646 -4.26715,-1.84188 -5.357569,-2.22106 -5.699064,-1.98175 -11.482393,-3.71899 -17.242935,-5.5088 -5.886434,-1.69622 -9.140698,-2.72827 -15.068061,-4.07488 -3.27067,-0.74305 -6.565042,-1.38026 -9.910744,-1.65788 -1.14323,-0.0949 -2.336741,-0.0209 -3.485948,0.0273 0,0 3.214007,2.29453 3.214007,2.29453 z" />
      <path
         style="fill:#d45500;stroke:none;stroke-width:1.765;stroke-dasharray:none;stroke-opacity:1"
         id="path2467"
         d="m 63.918348,246.09262 c -2.463049,-4.83801 -5.630262,-9.29869 -9.324914,-13.27759 -2.689294,-2.89619 -4.287144,-4.15125 -7.217474,-6.69229 -1.614664,-1.27156 -3.731,-3.11009 -5.65223,-4.04535 -1.816005,-0.88404 -5.253667,-3.6105 -7.589639,-1.55799 -2.219227,1.94994 -1.719765,4.21516 -1.95294,6.92878 0.210093,1.76606 0.260967,3.55844 0.630272,5.29819 0.806421,3.79892 2.251366,7.44358 4.244144,10.77532 0.929265,1.55364 1.952205,3.0732 3.18433,4.39955 3.078257,3.31367 6.277038,4.27222 10.400852,6.30599 1.222685,-0.0767 2.507914,0.16354 3.668049,-0.23006 1.103209,-0.37429 2.045848,-1.16948 2.873512,-1.98931 2.653078,-2.62798 3.580032,-6.90987 4.483145,-10.3995 1.982015,-1.06448 -1.617123,-2.46161 -1.900261,-1.66781 -0.355717,0.99728 1.134766,1.78916 1.652799,2.7126 2.146803,3.82689 3.997859,7.82197 5.866773,11.78813 1.500383,3.50966 2.78683,7.11326 3.440512,10.8846 0.307551,1.77438 0.460846,3.43337 0.323601,5.22484 -0.04838,0.63153 -0.203128,1.25036 -0.304691,1.87555 -0.223938,0.43548 -0.296739,0.99163 -0.671815,1.30643 -1.66343,1.39613 -5.091213,-0.009 -6.539039,-0.91646 -0.121264,-0.076 0.403315,-0.17598 0.316688,-0.28988 -0.767678,-1.00949 -1.752516,-1.83367 -2.628771,-2.7505 -1.571199,-1.99779 -2.830501,-3.41673 -4.044389,-5.64932 -0.983424,-1.80873 -1.567092,-3.10163 -1.325178,-5.17226 0.243109,-2.08086 0.916725,-2.43948 2.185757,-3.97788 0.864746,-0.48868 1.685472,-1.06512 2.594234,-1.46605 5.217906,-2.30208 11.135609,-2.38714 16.732213,-2.41994 0.825778,-0.15653 1.719479,-0.10617 2.477331,-0.46959 0.744069,-0.35681 1.408131,-0.93633 1.874353,-1.6172 1.353886,-1.97721 1.149331,-3.9789 0.585131,-6.22722 -0.71407,-2.84556 -2.19198,-5.25155 -3.550412,-7.80261 -0.677619,-1.02619 -1.240242,-2.13836 -2.032854,-3.07857 -1.429703,-1.69594 -5.119849,-3.76605 -7.05974,-3.42409 -1.032459,0.182 -1.014425,1.85616 -1.294172,2.86653 -0.824434,2.97763 -0.623657,5.41586 -0.641578,8.47515 0.589016,6.55781 2.937151,12.73487 6.14154,18.44089 0.43188,0.76904 0.911678,1.51017 1.367518,2.26525 1.024154,1.27355 1.669828,2.3165 3.084986,3.18727 2.150893,1.32346 4.175905,3.67577 6.628246,2.12094 1.675845,-1.06251 1.840191,-2.34008 2.563297,-4.08878 0.132474,-1.14367 0.36018,-2.28029 0.397417,-3.43101 0.08994,-2.77922 -0.345135,-6.03833 -0.578276,-8.78058 -0.399084,-4.69412 -0.661215,-9.38482 -0.844552,-14.09139 -0.02998,-1.30477 -0.13216,-4.35267 -0.06387,-5.83306 0.02175,-0.47169 0.05071,-0.9487 0.164438,-1.40698 0.04116,-0.16586 0.1205,-0.44704 0.289685,-0.42298 0.194183,0.0276 0.488286,0.55845 0.299093,0.50673 -0.92256,-0.25223 -1.754124,-0.76288 -2.631186,-1.14432 1.601075,2.17875 2.948993,4.53107 4.52764,6.7256 0.959662,1.33406 1.779436,2.3096 2.804654,3.57268 2.133558,2.49498 3.554783,4.21592 6.948228,5.3033 0.226703,0.0727 0.05687,-0.47271 0.0853,-0.70906 -0.205219,-0.32864 -0.392443,-0.66922 -0.615659,-0.98591 -2.201288,-3.12311 -4.954833,-5.96085 -7.524686,-8.78255 -0.943446,-1.04937 -1.911681,-2.07656 -2.912086,-3.07182 -0.169021,-0.16816 -0.33827,-0.33617 -0.512091,-0.49936 -0.110487,-0.10373 -0.206565,-0.23043 -0.340595,-0.30117 -1.196695,-0.63159 -2.425962,-1.19944 -3.638944,-1.79916 -0.03061,0.23161 -0.122767,0.46326 -0.09182,0.69483 0.05322,0.39816 0.229912,0.76984 0.339243,1.15639 0.217551,0.76918 0.437973,1.53766 0.641382,2.31071 0.312624,1.18812 0.56756,2.39159 0.906619,3.57244 1.237496,4.30988 1.724546,5.37712 3.315319,9.70253 1.029927,2.58508 2.565296,6.54613 3.751466,9.13238 0.756777,1.65003 1.750772,4.23813 3.537135,5.27897 1.614625,0.94078 3.296917,2.22179 5.165142,2.17944 1.00886,-0.0229 1.28043,-1.56005 1.92065,-2.34007 0.50507,-1.21335 1.09563,-2.39455 1.51521,-3.64004 0.91812,-2.72536 1.61559,-6.32984 2.15797,-9.12422 0.99952,-5.14964 1.88492,-10.32494 2.81556,-15.48736 0.86609,-4.44204 1.64518,-8.90507 2.61654,-13.32631 0.17063,-0.77663 0.31085,-1.56402 0.56376,-2.31788 0.0632,-0.18828 0.55679,-0.398 0.37043,-0.46663 -1.03613,-0.38154 -2.17215,-0.39784 -3.25823,-0.59677 0.43254,6.77384 0.5486,13.56457 0.71112,20.34919 0.29346,6.46736 0.20251,12.94468 0.46758,19.41205 0.0707,1.37497 0.11185,2.53575 0.24404,3.89089 0.0411,0.42107 -0.15023,0.96973 0.15821,1.2593 1.0099,0.9481 2.16991,1.91635 3.5259,2.19936 0.47226,0.0986 0.36091,-0.89667 0.49401,-1.36038 0.2336,-0.81379 0.40307,-1.64464 0.6046,-2.46697 1.3497,-4.90625 2.29644,-9.96118 4.28731,-14.66999 1.47082,-3.47877 1.90123,-3.82955 3.9618,-6.98648 1.93318,-2.61566 4.25191,-4.89 6.69302,-7.02278 0.48944,-0.42763 0.95822,-0.88566 1.49654,-1.24985 0.21483,-0.14534 0.95055,-0.11663 0.73375,-0.25902 -1.04033,-0.68323 -2.27849,-1.00245 -3.41773,-1.50367 -0.33462,0.50362 -0.64603,1.02346 -1.00386,1.51087 -0.54431,0.7414 -1.12578,1.4549 -1.70059,2.17292 -2.43343,3.0397 -5.00934,5.94793 -7.5817,8.86887 -1.29495,1.66839 -2.65346,3.32532 -3.73749,5.14606 -0.19124,0.32121 -0.37452,0.65235 -0.49576,1.00598 -0.0625,0.18239 -0.20268,0.46306 -0.0468,0.57653 1.16832,0.85048 2.51511,1.42382 3.77267,2.13573 0.27758,-0.13259 0.56467,-0.24689 0.83275,-0.39777 0.97862,-0.55076 2.15468,-1.39127 3.03993,-2.0028 0.74121,-0.51204 4.45856,-3.10598 5.06341,-3.49444 1.06955,-0.6869 2.17479,-1.31658 3.26219,-1.97487 3.41105,-1.91005 6.98264,-3.51256 10.64267,-4.87987 0.77687,-0.29022 3.87686,-1.36702 4.87628,-1.61443 0.50834,-0.12584 1.03401,-0.16681 1.55101,-0.25021 0.31446,0.0746 1.24877,0.3294 0.94337,0.22371 -1.01969,-0.35287 -2.05484,-1.27276 -3.08946,-0.96639 -0.67498,0.19988 -0.30788,1.37715 -0.54089,2.04142 -1.10063,3.13765 -2.79975,6.06603 -4.36301,8.98383 -0.65756,1.14603 -1.30363,2.29872 -1.97266,3.43809 -1.37744,2.3458 -2.96522,4.80795 -4.20488,7.22507 -1.14481,2.23219 -3.02827,6.51441 -3.92966,8.88166 -0.5085,1.33544 -0.92434,2.70435 -1.38651,4.05652 -0.19956,1.15874 -0.63998,2.30116 -0.5987,3.47625 0.15043,4.28144 4.98348,5.81314 8.45724,6.20054 1.21866,0.13592 3.9711,-1.6597 4.92634,-2.21313 1.40255,-1.31533 1.71675,-1.42616 2.69307,-2.9694 0.50726,-0.80179 1.09583,-1.87504 0.49687,-2.79931 -0.10699,-0.1651 -0.28625,-0.26993 -0.42938,-0.4049 0,0 -3.65666,-1.44081 -3.65666,-1.44081 v 0 c 0.32162,0.15944 0.75922,0.29236 0.88208,0.70215 0.21126,0.70464 -0.22581,1.46415 -0.55174,2.01779 -0.88691,1.50651 -1.199,1.61542 -2.5227,2.88806 -0.7388,0.42159 -1.43383,0.93142 -2.2164,1.26479 -0.83122,0.35412 -2.03,0.0792 -2.59443,0.78465 -0.37891,0.4736 1.19105,1.64486 0.58939,1.72146 -0.82123,0.10453 -1.45952,-0.87596 -1.94099,-1.5494 -1.59387,-2.22936 -0.85049,-3.43374 -0.48897,-6.0016 1.32019,-4.0558 1.33031,-4.43431 3.13268,-8.46391 0.66835,-1.49426 1.37064,-2.9749 2.13599,-4.42187 1.92189,-3.63358 4.29999,-7.01297 6.25582,-10.62775 1.60967,-2.93052 3.29593,-5.85206 4.56037,-8.95583 0.28564,-0.70115 1.10283,-1.47489 0.74903,-2.14424 -1.64091,-3.10431 -2.38979,-2.96888 -4.45876,-3.12781 -0.50371,0.11193 -1.01598,0.1906 -1.51113,0.3358 -0.95053,0.27873 -4.03514,1.43368 -4.76141,1.72238 -3.63623,1.44547 -7.19488,3.08674 -10.63768,4.94804 -4.55698,2.68057 -2.01813,1.10572 -6.0955,3.7959 -0.80095,0.52845 -1.60116,1.05812 -2.40845,1.57683 -0.70929,0.45573 -2.237,1.45461 -3.13054,1.84357 -0.23942,0.10422 -0.50423,0.13596 -0.75634,0.20394 0.96723,0.66689 1.87464,1.43018 2.90169,2.00065 0.1335,0.0742 -0.134,-0.29673 -0.10339,-0.44635 0.0716,-0.34976 0.22967,-0.67952 0.39812,-0.99429 0.27249,-0.50914 0.60178,-0.98606 0.91971,-1.46813 1.21939,-1.84888 1.28592,-1.85866 2.70175,-3.68512 3.58535,-4.17555 7.20839,-8.32477 10.62856,-12.63729 -1.11271,-0.82151 -2.1059,-1.83635 -3.33813,-2.46453 -0.23487,-0.11973 -0.46558,0.2541 -0.66909,0.42169 -0.49802,0.41013 -0.95864,0.86383 -1.42862,1.30581 -2.37104,2.22982 -4.67163,4.54301 -6.58991,7.18626 -2.09544,3.20536 -2.50909,3.52448 -4.00428,7.05526 -1.99055,4.70054 -2.93299,9.75385 -4.46476,14.60368 -0.24838,0.78943 -0.50234,1.57711 -0.74513,2.36827 -0.50311,1.63948 -0.60345,1.86799 2.81451,2.71941 0.41523,0.10343 -0.16086,-0.84101 -0.21805,-1.26509 -0.18974,-1.40713 -0.23928,-2.47839 -0.34168,-3.92065 -0.33447,-6.48834 -0.34741,-12.9891 -0.61991,-19.48031 -0.17235,-6.74558 -0.3126,-13.49249 -0.39913,-20.23964 -1.19899,-1.01749 -2.26228,-2.22091 -3.59696,-3.05247 -0.19964,-0.12438 -0.18406,0.43594 -0.23357,0.66589 -0.17094,0.79408 -0.28515,1.59932 -0.42627,2.39923 -0.79032,4.47985 -1.57642,8.96054 -2.42922,13.42907 -1.79833,9.76249 -0.17652,1.00195 -1.9667,10.54982 -0.30582,1.63106 -0.58701,3.26683 -0.91136,4.8943 -0.54282,2.72374 -1.27554,6.35874 -2.2274,9.00594 -0.43085,1.1982 -1.04691,2.32148 -1.570355,3.48222 -0.597146,0.65501 -1.648026,1.09035 -1.791438,1.96503 -0.103698,0.63244 1.8064,1.7535 1.226476,1.48069 -1.948455,-0.91663 -3.008998,-3.57058 -3.811596,-5.24699 -1.355068,-2.83037 -2.679163,-6.26444 -3.841982,-9.15221 -1.505916,-4.1889 -2.050191,-5.38457 -3.139104,-9.57437 -0.112094,-0.4313 -1.029878,-4.81123 -1.263989,-5.76974 -0.236204,-0.96708 -0.143155,-0.76758 -0.443682,-1.26967 -1.103691,-0.63573 -2.196725,-1.29033 -3.31107,-1.90719 -0.139129,-0.077 0.26085,0.18277 0.38201,0.28577 0.190016,0.16154 0.369113,0.33555 0.550363,0.50687 1.057121,0.99921 2.074754,2.03974 3.057705,3.11196 2.816098,3.03818 5.676045,6.07091 8.003619,9.51144 1.501542,0.21913 0.230571,-0.005 3.434297,1.91197 0.18202,0.10892 -0.382429,-0.19027 -0.549497,-0.32097 -1.101651,-0.86188 -1.929146,-2.04371 -2.909009,-3.02505 -1.04592,-1.2569 -1.876904,-2.21566 -2.845118,-3.55251 -1.563439,-2.1587 -2.87632,-4.4862 -4.370655,-6.69099 -1.330319,-0.94699 -2.598454,-1.98805 -3.990956,-2.84097 -0.587073,-0.35959 -0.845021,0.19537 -0.914059,0.62028 -0.08005,0.4927 -0.07049,0.99676 -0.0687,1.49592 0.0044,1.23933 0.201549,4.97253 0.248123,5.93935 0.254995,4.70957 0.520991,9.42129 0.877541,14.12448 0.219472,2.89501 0.614296,5.73556 0.482203,8.64805 -0.05024,1.10774 -0.285448,2.19931 -0.428172,3.29897 -0.689462,1.58197 -0.874975,2.84723 -2.476384,3.73497 -0.473861,0.26268 -1.579957,-0.22723 -1.594707,0.31437 -0.01736,0.63735 1.885521,1.65832 1.555842,1.11259 -0.767151,-1.26987 -2.906529,-1.33796 -3.19542,-3.09827 -0.476938,-0.75653 -0.979347,-1.49759 -1.430814,-2.26959 -2.52141,-4.31157 -4.653616,-9.01428 -5.693283,-13.91993 -0.309406,-1.45993 -0.442386,-2.95174 -0.66358,-4.42762 0.03284,-3.2257 -0.185933,-5.15652 0.728628,-8.25567 0.256635,-0.86966 1.227783,-1.54328 1.184108,-2.44896 -0.037,-0.76734 -2.13152,-1.63385 -1.390832,-1.83774 1.259131,-0.34659 4.222845,4.66825 4.247359,4.70402 1.386755,2.54758 2.815518,4.79125 3.539529,7.64565 0.523121,2.0624 0.722305,4.02532 -0.543467,5.84639 -0.435147,0.62604 -1.06389,1.14728 -1.7575,1.4638 -0.743725,0.33939 -1.608566,0.29286 -2.412847,0.43929 -5.555734,0.13489 -11.643799,0.31142 -16.806343,2.58945 -0.956443,0.42204 -1.821498,1.02652 -2.732247,1.53978 -1.343384,1.64727 -2.036812,2.01447 -2.303324,4.22625 -0.104722,0.86909 -0.07409,1.77294 0.136588,2.62258 0.241512,0.974 0.722381,1.87827 1.198483,2.76162 1.204651,2.2351 2.50892,3.72848 4.067289,5.72966 0.855808,0.9308 1.575231,2.00861 2.567424,2.79244 1.705057,1.34699 5.838481,4.3031 8.653843,5.00224 1.317242,0.32708 3.085074,0.44336 4.205888,-0.58907 0.389277,-0.35859 0.456176,-0.95517 0.684266,-1.43277 0.09316,-0.65056 0.239688,-1.29572 0.279484,-1.9517 0.113488,-1.87076 -0.06422,-3.49856 -0.401163,-5.35242 -0.692822,-3.81186 -2.001229,-7.44961 -3.514239,-11.006 -2.018045,-4.26975 -1.760341,-3.77063 -3.867668,-8.04163 -0.610666,-1.23766 -1.220502,-2.47581 -1.845882,-3.70611 -0.465148,-0.91507 -0.668676,-2.03627 -1.425556,-2.72972 -1.29059,-1.18241 -2.834746,-2.17103 -4.502721,-2.70166 -0.384731,-0.1224 -0.28542,0.75533 -0.428128,1.13299 -0.743305,3.46922 -1.556195,7.66028 -4.203163,10.24935 -0.787334,0.77011 -1.693143,1.50971 -2.743369,1.84136 -1.121336,0.35409 -2.350027,0.0921 -3.525041,0.13807 -2.231499,0.35538 -1.464117,0.43257 -4.592283,-2.81359 -1.258602,-1.30608 -2.301322,-2.81854 -3.248353,-4.36549 -2.004716,-3.27465 -3.455363,-6.88163 -4.235289,-10.64338 -0.35284,-1.70182 -0.375708,-3.45567 -0.563562,-5.1835 0.276074,-2.49215 -0.147132,-4.70032 1.975561,-6.43304 0.524497,-0.42814 1.589173,-0.0232 1.939791,-0.60236 0.257595,-0.42553 -1.307714,-1.34745 -0.820677,-1.24633 1.119881,0.2325 5.288425,3.63072 5.852819,4.06557 2.96578,2.52887 4.57383,3.76154 7.278086,6.65929 3.588576,3.84535 6.697279,8.17739 8.910289,12.95642 0,0 3.528491,1.6412 3.528491,1.6412 z" />
      <path
         style="fill:#d45500;stroke:none;stroke-width:1.765;stroke-dasharray:none;stroke-opacity:1"
         id="path2469"
         d="m 69.370476,288.22147 c 1.994112,-2.07195 3.948621,-4.18981 5.993625,-6.21207 1.118933,-1.10649 2.218031,-2.23684 3.404976,-3.27004 1.418833,-1.23502 2.936359,-2.35191 4.40454,-3.52785 6.42779,-4.50204 13.381733,-8.26577 20.732333,-11.02807 3.02319,-1.13609 6.28016,-2.09547 9.36968,-3.04925 4.89212,-1.40529 2.56365,-0.76114 6.98174,-1.9457 0,0 -2.97549,-2.03975 -2.97549,-2.03975 v 0 c -4.31986,1.26932 -2.03659,0.58795 -6.84765,2.05127 -2.95812,0.95975 -6.39533,2.03608 -9.28041,3.1438 -1.756218,0.67429 -3.505096,1.37352 -5.213211,2.16176 -1.736577,0.80137 -3.427278,1.70008 -5.113031,2.60347 -5.666623,3.03681 -5.144942,2.86052 -10.451827,6.34191 -1.505132,1.16374 -3.050339,2.2774 -4.515395,3.49117 -3.462933,2.86904 -6.526056,6.17207 -9.844783,9.19626 0,0 3.354903,2.08309 3.354903,2.08309 z" />
      <path
         style="fill:#d45500;stroke:none;stroke-width:1.765;stroke-dasharray:none;stroke-opacity:1"
         id="path2471"
         d="m 94.984407,280.84494 c 0.984806,-2.2066 2.415654,-4.36057 4.139092,-6.05962 0.544502,-0.53681 1.158601,-0.99811 1.737901,-1.49715 2.78479,-2.20292 5.96974,-3.76703 9.1365,-5.32664 0,0 -3.17402,-2.08637 -3.17402,-2.08637 v 0 c -3.14541,1.63221 -6.31447,3.248 -9.11587,5.4474 -0.595704,0.50927 -1.225884,0.98076 -1.787118,1.52778 -0.507883,0.49501 -0.96121,1.04402 -1.412684,1.59097 -1.141339,1.38271 -2.191163,2.8603 -2.976346,4.47564 0,0 3.452545,1.92799 3.452545,1.92799 z" />
      <path
         style="fill:#d45500;stroke:none;stroke-width:1.765;stroke-dasharray:none;stroke-opacity:1"
         id="path2473"
         d="m 65.626564,230.77298 c 1.800656,-1.04777 3.413575,-2.38202 5.231297,-3.40567 1.939488,-1.09221 3.05241,-1.51875 5.111424,-2.42501 3.235764,-1.35488 6.505377,-2.65149 9.864471,-3.67258 1.539936,-0.46811 2.221119,-0.61856 3.736866,-0.99537 1.010603,-0.26562 2.645693,-0.41366 3.382516,-1.30264 0.397867,-0.48003 0.674005,-1.05316 0.940191,-1.61696 0.865897,-1.83402 1.149038,-3.08541 1.730724,-5.0482 1.311897,-4.69415 1.497495,-9.55042 1.190766,-14.38326 -0.03342,-0.35313 -0.03029,-0.71165 -0.10028,-1.05938 -0.329427,-1.63655 -3.248567,-2.28045 -4.082195,-2.51358 -0.326692,-0.0914 -0.529609,0.42696 -0.764599,0.67161 -0.87304,0.90892 -1.164203,1.48469 -1.896721,2.59556 -1.674728,2.74705 -3.236309,5.56255 -4.960371,8.27969 -0.389027,0.61312 -0.748689,1.24836 -1.193287,1.82245 -0.441319,0.56986 -0.970714,1.06571 -1.456071,1.59856 -1.291243,1.21425 -2.670005,2.361 -4.185718,3.28891 -0.32825,0.20096 -1.221809,0.66878 -1.658906,0.79562 -0.156184,0.0453 -0.323165,0.0368 -0.484749,0.0552 -0.115657,-0.0215 -0.241985,-0.0115 -0.346974,-0.0646 -0.110945,-0.0561 -0.389959,-0.30086 -0.276278,-0.25054 1.01238,0.44814 1.899071,1.24968 2.987781,1.45082 0.352613,0.0651 -0.300731,-0.65115 -0.442384,-0.98057 -1.256313,-2.92155 -0.04678,-0.3427 -1.839772,-3.9808 -2.565715,-5.02832 -6.099701,-9.45696 -9.540364,-13.90094 -0.298688,-0.33386 -0.57281,-0.69144 -0.896059,-1.00158 -1.037992,-0.99588 -3.899072,-1.72454 -4.461452,-1.73461 -0.402891,-0.007 -0.105132,0.80526 -0.07106,1.20677 0.09146,1.07782 0.65867,3.3502 0.880864,4.31696 1.324356,4.72706 2.439964,9.50032 3.270954,14.33803 -0.05095,0.98712 0.735049,2.44773 0.09408,3.39869 -0.625179,0.92753 -2.312628,1.14573 -3.259508,1.35434 -0.576675,0.0638 -1.151096,0.15316 -1.730031,0.19138 -1.10925,0.0732 -4.037798,0.10863 -5.065712,0.11638 -2.45931,0.0185 -4.915408,-0.004 -7.373578,-0.0733 -1.331875,-0.0574 -2.665444,-0.11075 -3.993891,-0.22747 -0.184957,-0.0163 -0.369768,-0.0352 -0.55372,-0.0604 -0.08855,-0.0121 -0.335708,-0.10361 -0.26313,-0.0515 1.199097,0.86162 2.440905,1.66219 3.661359,2.49329 3.144602,0.63255 5.911469,2.28785 8.733221,3.72187 0.320202,0.16273 -0.624416,-0.35516 -0.936625,-0.53275 3.708181,2.20344 7.368485,4.5186 11.243051,6.42308 0.555313,0.18783 1.078812,0.59437 1.672796,0.67477 0.06833,-0.0171 0.03434,9e-5 0.09434,-0.0644 0,0 -3.273819,-2.29592 -3.273819,-2.29592 v 0 c 0.0093,-0.0165 0.01868,-0.033 0.02802,-0.0496 -0.0052,-0.007 -0.01037,-0.0137 -0.01556,-0.0206 -0.513631,-0.23099 -1.053923,-0.40527 -1.549734,-0.67735 -0.857779,-0.42835 -0.749739,-0.36634 -1.672952,-0.86628 -0.385085,-0.20853 -1.5166,-0.87424 -1.151702,-0.63211 0.563229,0.37373 2.320485,1.38731 1.748057,1.02783 -1.210247,-0.76004 -2.492394,-1.40182 -3.68082,-2.19834 -4.587354,-2.64178 -9.170173,-5.60585 -14.370857,-6.89437 0.883738,0.75499 1.737725,1.54627 2.651207,2.26499 0.06482,0.051 0.164597,0.0108 0.246944,0.0152 0.17414,0.01 0.348295,0.0188 0.522509,0.0269 1.292104,0.0595 2.585093,0.0973 3.878247,0.12498 2.442207,0.0367 4.883232,0.0363 7.325725,0.0237 0.86855,-0.005 4.224417,-0.0178 5.183603,-0.0796 0.593407,-0.0382 1.180811,-0.14166 1.771219,-0.21249 1.19894,-0.27851 2.804382,-0.49171 3.549361,-1.65923 0.642887,-1.00754 -0.09106,-2.56124 -0.132871,-3.61534 -0.42998,-2.27206 -0.859248,-4.54734 -1.379305,-6.80096 -0.398825,-1.72828 -0.832606,-3.29296 -1.276887,-5.0108 -0.22072,-0.85343 -0.436081,-1.70825 -0.654124,-2.56237 -0.29069,-1.34234 -0.651409,-2.77841 -0.782317,-4.15817 -0.03048,-0.32118 0.245271,-0.74174 0.01506,-0.96777 -0.912924,-0.89631 -2.142213,-1.40061 -3.183882,-2.1434 -0.224211,-0.15988 0.514043,0.21756 0.727352,0.39172 0.361675,0.29528 0.652802,0.66773 0.979202,1.0016 3.516373,4.39194 7.098477,8.80537 9.639316,13.85589 0.360296,0.76628 0.744593,1.52174 1.080889,2.29886 0.224314,0.51835 0.400857,1.05609 0.59972,1.58473 0.126384,0.33596 0.108879,0.76932 0.376016,1.00907 1.118883,1.00421 2.423107,1.78184 3.669821,2.62209 0.110728,0.0746 0.252235,0.0962 0.384974,0.11074 0.129934,0.0142 0.260834,-0.0174 0.39125,-0.026 2.348121,-0.67462 4.505862,-2.90758 6.289241,-4.45609 0.495966,-0.54995 1.038397,-1.06132 1.487903,-1.64986 0.442558,-0.57944 0.794633,-1.22281 1.17925,-1.84223 1.693669,-2.7276 3.255047,-5.53659 5.001448,-8.23186 0.612381,-0.85295 1.146765,-1.72808 1.936512,-2.43128 0.195823,-0.17437 0.841885,-0.23562 0.661392,-0.42581 -0.806093,-0.84939 -1.946421,-1.30249 -2.919629,-1.95373 0.115789,0.14349 0.289237,0.25549 0.347371,0.43047 0.113517,0.34169 0.100653,0.71303 0.150982,1.06954 0.497525,4.89258 0.361008,9.5565 -0.982366,14.33366 -0.589698,1.91331 -1.324946,4.78871 -2.720658,6.33172 -0.727445,0.80422 -2.292773,0.94465 -3.240386,1.24596 -1.255903,0.33915 -2.462694,0.65185 -3.705929,1.04759 -3.336507,1.06205 -6.573454,2.41975 -9.808242,3.75063 -1.938975,0.84468 -3.365074,1.41283 -5.213847,2.41997 -1.854547,1.01028 -3.528274,2.3297 -5.416849,3.27972 0,0 3.316883,2.14608 3.316883,2.14608 z" />
      <path
         style="fill:#d45500;stroke:none;stroke-width:1.765;stroke-dasharray:none;stroke-opacity:1"
         id="path2475"
         d="m 20.688029,234.90998 c 1.820879,1.7972 3.823145,3.40537 5.772458,5.05874 0,0 3.32823,1.34775 3.32823,1.34775 v 0 c -1.848707,-1.58472 -3.748375,-3.12936 -5.456914,-4.86869 0,0 -3.643774,-1.5378 -3.643774,-1.5378 z" />
      <path
         style="fill:#d45500;stroke:none;stroke-width:1.765;stroke-dasharray:none;stroke-opacity:1"
         id="path2477"
         d="m 20.815539,239.58021 c 2.436649,1.73718 4.924959,3.39862 7.417913,5.05327 0,0 3.367114,1.31739 3.367114,1.31739 v 0 c -2.397491,-1.60426 -4.798052,-3.20534 -7.119535,-4.91919 0,0 -3.665492,-1.45147 -3.665492,-1.45147 z" />
      <path
         style="fill:#d45500;stroke:none;stroke-width:1.765;stroke-dasharray:none;stroke-opacity:1"
         id="path2479"
         d="m 135.38808,211.43868 c -1.23551,2.53156 -2.16526,5.19825 -3.23559,7.80126 0,0 3.36595,1.87833 3.36595,1.87833 v 0 c 0.99519,-2.60373 1.87876,-5.27593 3.27224,-7.70235 0,0 -3.4026,-1.97724 -3.4026,-1.97724 z" />
      <path
         style="fill:#d45500;stroke:none;stroke-width:1.765;stroke-dasharray:none;stroke-opacity:1"
         id="path2481"
         d="m 138.13059,215.36593 c -0.22572,1.79119 -0.61031,3.55652 -0.97715,5.32236 0,0 3.30579,1.77145 3.30579,1.77145 v 0 c 0.37098,-1.75025 0.75286,-3.49785 1.1403,-5.24453 0,0 -3.46894,-1.84928 -3.46894,-1.84928 z" />
      <path
         style="fill:#d45500;stroke:none;stroke-width:1.765;stroke-dasharray:none;stroke-opacity:1"
         id="path2483"
         d="m 16.983582,223.53678 c -0.52175,2.94445 -0.689803,5.92964 -0.869995,8.90984 -0.02719,0.50229 -0.05438,1.00457 -0.08156,1.50685 0,0 3.391326,1.74689 3.391326,1.74689 v 0 c 0.0174,-0.5058 0.0348,-1.01161 0.0522,-1.51741 0.145752,-2.94573 0.315832,-5.90003 0.997436,-8.78057 0,0 -3.489403,-1.8656 -3.489403,-1.8656 z" />
      <path
         style="fill:#d45500;stroke:none;stroke-width:1.765;stroke-dasharray:none;stroke-opacity:1"
         id="path2485"
         d="m 25.668876,224.77707 c -0.440644,5.42893 -0.557789,10.87832 -0.757435,16.31987 -0.03417,0.9118 -0.06833,1.8236 -0.102494,2.7354 0,0 3.259735,1.67209 3.259735,1.67209 v 0 c 0.01566,-0.92071 0.03133,-1.84142 0.047,-2.76213 0.141695,-5.39211 0.284186,-10.80318 1.023522,-16.15322 0,0 -3.470324,-1.81201 -3.470324,-1.81201 z" />
      <circle
         id="path3980"
         style="fill:#d45500;stroke:#000000;stroke-width:0.264583"
         cx="238.58325"
         cy="165.99609"
         r="0.25696221" />
    </g>
    <path
       id="path72"
       style="fill:url(#meshgradient4182);stroke:#000000;stroke-width:1.765;stroke-dasharray:none;stroke-opacity:1;fill-opacity:1"
       d="m 46.199247,121.23498 c -2.136169,0.0253 -3.96818,0.50586 -5.134053,1.67173 -1.038226,1.03823 -1.335986,2.63539 -1.735295,4.04833 -1.928601,6.82428 -2.497213,10.81923 -2.450496,16.4884 9.889835,-3.02754 19.777497,-6.06241 29.653487,-9.13484 -0.0069,-0.0431 -0.01154,-0.08 -0.0186,-0.12351 -0.349383,-2.15454 -1.053953,-5.99944 -3.181201,-7.51892 -2.762522,-1.97323 -10.773573,-5.3363 -16.702856,-5.43016 -0.14501,-0.002 -0.28857,-0.003 -0.430982,-10e-4 z m 20.712948,15.98403 c -9.978915,3.10319 -19.969824,6.16824 -29.962512,9.22683 0.01914,0.52364 0.04124,1.06139 0.06666,1.62057 0.199635,4.39194 0.226362,9.3287 0.5271,14.29629 1.440603,0.40177 2.881541,0.80081 4.322217,1.19683 14.215245,3.90755 20.039832,5.2989 34.615975,8.98911 l 9.880533,2.41019 c 0.659711,-0.52763 1.284869,-1.10048 1.841232,-1.73271 1.691818,-1.92253 5.507019,-5.88123 4.627107,-9.25422 -0.438659,-1.68151 -0.856444,-3.41727 -1.735294,-4.91649 -0.793587,-1.35378 -2.045573,-2.38659 -3.180685,-3.47007 -3.402086,-3.24746 -7.715468,-5.03681 -12.435416,-5.20537 -1.637706,-0.0585 -3.314126,-0.34337 -4.916496,0 -2.692602,0.57698 -4.229159,2.92457 -6.073014,4.62659 -0.255394,0.23575 -0.621882,0.33301 -0.867648,0.57878 -0.152415,0.15242 -0.116428,0.44892 -0.288871,0.57825 -0.412669,0.30951 -1.444806,0.58026 -1.445906,0.57826 -0.339775,-0.67954 1.658467,-6.45757 1.734777,-6.65127 2.466301,-6.26064 3.76221,-7.67294 3.290239,-12.87157 z m -29.145508,28.20862 c 0.493989,5.64684 1.466349,11.19797 3.587895,15.89567 1.186031,2.62622 4.033573,3.67766 5.494238,6.07301 l 13.720093,-3.99148 c -0.431308,-0.22428 -0.862497,-0.44893 -1.293978,-0.67283 -1.695461,-0.87981 -1.665608,-2.3144 -0.703833,-2.78071 -0.336186,-0.89855 0.125906,-1.69088 1.031461,-1.71669 0.412552,-0.0118 0.916191,0.13532 1.476913,0.50384 1.163854,0.76491 2.249903,1.64213 3.393074,2.43758 0.66087,0.41805 1.219016,0.94158 1.732711,1.5136 6.498414,-0.32528 11.224053,-1.72928 17.025834,-5.51749 -2.486339,-0.60663 -4.972639,-1.21346 -7.458976,-1.82004 -14.597382,-3.69579 -20.459479,-5.09645 -34.698657,-9.01134 -1.101892,-0.30295 -2.204437,-0.60735 -3.306775,-0.91312 z" />
    <path
       style="fill:#cccccc;stroke:#000000;stroke-width:1.765;stroke-dasharray:none;stroke-opacity:1"
       d="m 46.849074,187.10711 c 1.643013,0.0887 3.046968,-0.9812 4.627071,-1.15677 3.671281,0 2.339284,0.13152 5.494644,-0.28919 1.932175,-0.25763 3.872169,-0.93187 5.783837,-1.15677 1.212244,-0.14262 3.36061,0.24931 3.181109,-0.28919 -0.489929,-1.46979 -2.282479,-2.60273 -3.759494,-2.60273"
       id="path1067" />
    <path
       style="fill:#a02c2c;stroke:#000000;stroke-width:7.29131;stroke-dasharray:none;stroke-opacity:1"
       d="m 170.26805,695.32522 c -9.32577,-8.80273 -12.04762,-13.6051 -16.53729,-29.17812 -3.02675,-10.49865 -6.95354,-33.42713 -5.90448,-34.47618 0.37713,-0.37713 14.785,3.10647 32.0175,7.74133 17.2325,4.63486 52.30795,13.72917 77.94545,20.20957 l 46.61363,11.78255 -9.29058,4.4197 c -5.10981,2.43083 -13.2254,5.43327 -18.03464,6.6721 -10.58343,2.72621 -25.55696,4.45919 -26.4229,3.05808 -1.50992,-2.44311 -18.7049,-14.07075 -22.4808,-15.20204 -3.63662,-1.08956 -4.55093,-0.97911 -6.98386,0.84365 -4.9637,3.71884 -7.36689,14.22577 -4.26627,18.65251 1.56639,2.23634 1.32324,2.36219 -11.20334,5.79888 -7.04246,1.93211 -15.79027,4.45585 -19.43958,5.60831 -3.64931,1.15246 -6.84636,2.08184 -7.10456,2.06529 -0.25819,-0.0165 -4.26692,-3.61459 -8.90828,-7.99563 z"
       id="path2067"
       transform="scale(0.26458333)" />
    <path
       style="fill:#668000;stroke:#000000;stroke-width:7.29131;stroke-dasharray:none;stroke-opacity:1"
       d="m 143.63672,527.53207 c 1.41332,-18.18533 9.00404,-52.36575 12.97527,-58.42661 6.13234,-9.35912 27.71831,-8.95964 55.70275,1.03086 11.93655,4.26137 24.66787,11.21166 27.55004,15.04013 2.5145,3.34007 5.14986,10.05012 6.48601,16.51443 l 0.67777,3.27903 -52.06298,16.00411 -52.06298,16.00412 z"
       id="path2069"
       transform="scale(0.26458333)" />
    <path
       style="fill:#d45500;stroke:#000000;stroke-width:7.29131;stroke-dasharray:none;stroke-opacity:1"
       d="m 252.45353,638.91487 c -38.33838,-9.76385 -86.43143,-22.4924 -99.5529,-26.34816 l -7.22512,-2.1231 -0.69843,-16.12107 c -0.38414,-8.86659 -0.76666,-21.03891 -0.85006,-27.0496 l -0.15163,-10.92853 52.34202,-16.12004 c 28.78811,-8.86602 52.53329,-16.12156 52.76707,-16.12342 0.23378,-0.002 0.16543,2.85984 -0.15189,6.35935 -0.37169,4.09903 -2.79753,11.97357 -6.81844,22.13342 -6.33693,16.01183 -10.57392,28.88518 -11.91962,36.21565 -0.68459,3.72923 -0.47988,4.18615 2.58579,5.77147 4.41923,2.28527 6.02797,1.39134 17.10347,-9.50386 l 8.87543,-8.73094 0.70594,3.76299 c 1.05354,5.61588 13.35257,38.4786 17.76131,47.45779 2.11474,4.30706 6.55358,10.82413 9.86409,14.48236 3.31052,3.65823 5.36303,6.61217 4.56115,6.56428 -0.80188,-0.0479 -18.44106,-4.41226 -39.19818,-9.69859 z"
       id="path2347"
       transform="scale(0.26458333)" />
  </g>
  <g
     inkscape:groupmode="layer"
     id="layer2"
     inkscape:label="Layer 2">
    <path
       style="fill:#cccccc;stroke:#000000;stroke-width:1.765;stroke-dasharray:none;stroke-opacity:1"
       d="m 87.914312,175.25024 c -3.703817,0.24243 -6.307579,-1.35521 -8.964946,-3.75949 -4.984739,-4.51 -5.34467,-7.31185 -7.808179,-13.88121 -0.503177,-1.3418 -1.139722,-2.64874 -1.445959,-4.04869 -0.746156,-3.411 -0.797478,-6.93778 -1.156768,-10.4109 -0.256514,-2.47964 -0.705795,-4.00789 0.578384,-6.36222 1.426551,-2.61534 6.31063,-6.94851 9.54333,-7.51899 0.765355,-0.13506 1.538076,0.2375 2.313535,0.28919 2.674247,0.17829 5.258237,0.45432 7.80818,1.44596 1.085572,0.42217 2.092642,1.03131 3.181109,1.44596 0.940485,0.35828 1.979919,0.44198 2.891917,0.86758 0.559337,0.26102 0.97178,0.76161 1.445961,1.15676 0.682747,0.56896 1.421527,1.08211 2.024343,1.73516 0.562457,0.60933 0.940361,1.36706 1.445959,2.02434 0.459042,0.59676 1.058602,1.08955 1.445962,1.73515 0.20448,0.34082 0.1723,0.77689 0.28919,1.15677 0.99284,3.22673 2.01593,6.50737 2.60272,9.83252 0.23692,1.34252 0.23427,2.72957 0.57839,4.04868 0.66764,2.55929 1.90188,3.04828 1.44596,5.78384 -0.32297,1.93778 -3.39087,4.71396 -4.62707,6.36222 -0.68864,0.91818 -0.95962,2.20842 -1.44596,3.18111 -0.121936,0.24387 -0.456451,0.33452 -0.578385,0.57838 -0.127486,0.25498 -0.297831,0.96974 -0.578384,1.15677 -0.160414,0.10695 -0.405942,-0.0862 -0.578382,0 -0.08622,0.0431 0,0.19279 0,0.28919 -0.289192,0.1928 -0.542142,0.45635 -0.867577,0.57839 -1.578361,0.59188 -3.320142,0.62472 -4.916259,1.15676 -0.09145,0.0305 0.0895,0.2534 0,0.2892 -1.270532,0.50821 -3.323826,0.86757 -4.627071,0.86757 z"
       id="path1798" />
    <path
       id="path1800"
       style="fill:#cccccc;stroke:#000000;stroke-width:1.765;stroke-dasharray:none;stroke-opacity:1"
       d="m 84.923499,147.63233 c -0.354799,0.006 -0.719714,0.11647 -1.056267,0.262 0.07607,0.15797 0.151377,0.31634 0.22841,0.47387 0.914149,1.79225 1.939355,3.52263 2.966227,5.25136 0.02334,0.0393 0.04532,0.0785 0.06666,0.11731 0.497813,-1.46026 0.990356,-2.92221 1.478463,-4.38578 -0.271764,-0.19689 -0.511514,-0.34517 -0.692465,-0.41755 -0.369024,-0.14759 -0.791717,-0.1323 -1.157035,-0.28887 -0.319463,-0.13691 -0.578455,-0.38547 -0.867647,-0.57826 -0.0964,-0.0964 -0.166938,-0.22838 -0.288871,-0.28938 -0.214059,-0.10703 -0.443746,-0.14861 -0.677478,-0.1447 z m -2.83497,3.13211 c -7.98e-4,0.0303 -4.94e-4,0.0611 0,0.092 0.02737,0.0178 0.0538,0.0358 0.07958,0.0543 -0.02643,-0.0488 -0.05328,-0.0974 -0.07958,-0.14625 z m 8.855274,0.71985 c -0.598639,1.7862 -1.204705,3.56985 -1.821078,5.35006 0.08739,-0.0445 0.16841,-0.0786 0.237712,-0.0925 0.56715,-0.11343 1.186078,0.18291 1.734778,0 0.09145,-0.0305 -0.06816,-0.22067 0,-0.28887 0.215551,-0.21559 0.652096,-0.0738 0.867647,-0.28939 0.06816,-0.0682 -0.04311,-0.20318 0,-0.28938 0.421812,-0.84362 0.224184,-0.61387 0,-1.73478 -0.171982,-0.8599 0.401625,-0.6305 -0.288871,-1.7353 -0.158821,-0.25411 -0.417711,-0.5754 -0.730188,-0.91984 z m -8.13077,0.59067 c -0.01098,0.24793 -0.105579,0.48772 -0.279053,0.69039 0.360617,0.97008 0.917901,1.66692 2.013831,2.2841 -0.586079,-0.98682 -1.170134,-1.97534 -1.734778,-2.97449 z m 3.384806,4.27932 c 0.008,0.007 0.01579,0.0145 0.02377,0.0217 0.0021,-0.006 0.0041,-0.0124 0.0062,-0.0186 -0.01,-7.7e-4 -0.01995,-0.002 -0.02997,-0.003 z" />
  </g>
  <script
     id="mesh_polyfill"
     type="text/javascript">
!function(){const t=&quot;http://www.w3.org/2000/svg&quot;,e=&quot;http://www.w3.org/1999/xlink&quot;,s=&quot;http://www.w3.org/1999/xhtml&quot;,r=2;if(document.createElementNS(t,&quot;meshgradient&quot;).x)return;const n=(t,e,s,r)=&gt;{let n=new x(.5*(e.x+s.x),.5*(e.y+s.y)),o=new x(.5*(t.x+e.x),.5*(t.y+e.y)),i=new x(.5*(s.x+r.x),.5*(s.y+r.y)),a=new x(.5*(n.x+o.x),.5*(n.y+o.y)),h=new x(.5*(n.x+i.x),.5*(n.y+i.y)),l=new x(.5*(a.x+h.x),.5*(a.y+h.y));return[[t,o,a,l],[l,h,i,r]]},o=t=&gt;{let e=t[0].distSquared(t[1]),s=t[2].distSquared(t[3]),r=.25*t[0].distSquared(t[2]),n=.25*t[1].distSquared(t[3]),o=e&gt;s?e:s,i=r&gt;n?r:n;return 18*(o&gt;i?o:i)},i=(t,e)=&gt;Math.sqrt(t.distSquared(e)),a=(t,e)=&gt;t.scale(2/3).add(e.scale(1/3)),h=t=&gt;{let e,s,r,n,o,i,a,h=new g;return t.match(/(\w+\(\s*[^)]+\))+/g).forEach(t=&gt;{let l=t.match(/[\w.-]+/g),d=l.shift();switch(d){case&quot;translate&quot;:2===l.length?e=new g(1,0,0,1,l[0],l[1]):(console.error(&quot;mesh.js: translate does not have 2 arguments!&quot;),e=new g(1,0,0,1,0,0)),h=h.append(e);break;case&quot;scale&quot;:1===l.length?s=new g(l[0],0,0,l[0],0,0):2===l.length?s=new g(l[0],0,0,l[1],0,0):(console.error(&quot;mesh.js: scale does not have 1 or 2 arguments!&quot;),s=new g(1,0,0,1,0,0)),h=h.append(s);break;case&quot;rotate&quot;:if(3===l.length&amp;&amp;(e=new g(1,0,0,1,l[1],l[2]),h=h.append(e)),l[0]){r=l[0]*Math.PI/180;let t=Math.cos(r),e=Math.sin(r);Math.abs(t)&lt;1e-16&amp;&amp;(t=0),Math.abs(e)&lt;1e-16&amp;&amp;(e=0),a=new g(t,e,-e,t,0,0),h=h.append(a)}else console.error(&quot;math.js: No argument to rotate transform!&quot;);3===l.length&amp;&amp;(e=new g(1,0,0,1,-l[1],-l[2]),h=h.append(e));break;case&quot;skewX&quot;:l[0]?(r=l[0]*Math.PI/180,n=Math.tan(r),o=new g(1,0,n,1,0,0),h=h.append(o)):console.error(&quot;math.js: No argument to skewX transform!&quot;);break;case&quot;skewY&quot;:l[0]?(r=l[0]*Math.PI/180,n=Math.tan(r),i=new g(1,n,0,1,0,0),h=h.append(i)):console.error(&quot;math.js: No argument to skewY transform!&quot;);break;case&quot;matrix&quot;:6===l.length?h=h.append(new g(...l)):console.error(&quot;math.js: Incorrect number of arguments for matrix!&quot;);break;default:console.error(&quot;mesh.js: Unhandled transform type: &quot;+d)}}),h},l=t=&gt;{let e=[],s=t.split(/[ ,]+/);for(let t=0,r=s.length-1;t&lt;r;t+=2)e.push(new x(parseFloat(s[t]),parseFloat(s[t+1])));return e},d=(t,e)=&gt;{for(let s in e)t.setAttribute(s,e[s])},c=(t,e,s,r,n)=&gt;{let o,i,a=[0,0,0,0];for(let h=0;h&lt;3;++h)e[h]&lt;t[h]&amp;&amp;e[h]&lt;s[h]||t[h]&lt;e[h]&amp;&amp;s[h]&lt;e[h]?a[h]=0:(a[h]=.5*((e[h]-t[h])/r+(s[h]-e[h])/n),o=Math.abs(3*(e[h]-t[h])/r),i=Math.abs(3*(s[h]-e[h])/n),a[h]&gt;o?a[h]=o:a[h]&gt;i&amp;&amp;(a[h]=i));return a},u=[[1,0,0,0,0,0,0,0,0,0,0,0,0,0,0,0],[0,0,0,0,1,0,0,0,0,0,0,0,0,0,0,0],[-3,3,0,0,-2,-1,0,0,0,0,0,0,0,0,0,0],[2,-2,0,0,1,1,0,0,0,0,0,0,0,0,0,0],[0,0,0,0,0,0,0,0,1,0,0,0,0,0,0,0],[0,0,0,0,0,0,0,0,0,0,0,0,1,0,0,0],[0,0,0,0,0,0,0,0,-3,3,0,0,-2,-1,0,0],[0,0,0,0,0,0,0,0,2,-2,0,0,1,1,0,0],[-3,0,3,0,0,0,0,0,-2,0,-1,0,0,0,0,0],[0,0,0,0,-3,0,3,0,0,0,0,0,-2,0,-1,0],[9,-9,-9,9,6,3,-6,-3,6,-6,3,-3,4,2,2,1],[-6,6,6,-6,-3,-3,3,3,-4,4,-2,2,-2,-2,-1,-1],[2,0,-2,0,0,0,0,0,1,0,1,0,0,0,0,0],[0,0,0,0,2,0,-2,0,0,0,0,0,1,0,1,0],[-6,6,6,-6,-4,-2,4,2,-3,3,-3,3,-2,-1,-2,-1],[4,-4,-4,4,2,2,-2,-2,2,-2,2,-2,1,1,1,1]],f=t=&gt;{let e=[];for(let s=0;s&lt;16;++s){e[s]=0;for(let r=0;r&lt;16;++r)e[s]+=u[s][r]*t[r]}return e},p=(t,e,s)=&gt;{const r=e*e,n=s*s,o=e*e*e,i=s*s*s;return t[0]+t[1]*e+t[2]*r+t[3]*o+t[4]*s+t[5]*s*e+t[6]*s*r+t[7]*s*o+t[8]*n+t[9]*n*e+t[10]*n*r+t[11]*n*o+t[12]*i+t[13]*i*e+t[14]*i*r+t[15]*i*o},y=t=&gt;{let e=[],s=[],r=[];for(let s=0;s&lt;4;++s)e[s]=[],e[s][0]=n(t[0][s],t[1][s],t[2][s],t[3][s]),e[s][1]=[],e[s][1].push(...n(...e[s][0][0])),e[s][1].push(...n(...e[s][0][1])),e[s][2]=[],e[s][2].push(...n(...e[s][1][0])),e[s][2].push(...n(...e[s][1][1])),e[s][2].push(...n(...e[s][1][2])),e[s][2].push(...n(...e[s][1][3]));for(let t=0;t&lt;8;++t){s[t]=[];for(let r=0;r&lt;4;++r)s[t][r]=[],s[t][r][0]=n(e[0][2][t][r],e[1][2][t][r],e[2][2][t][r],e[3][2][t][r]),s[t][r][1]=[],s[t][r][1].push(...n(...s[t][r][0][0])),s[t][r][1].push(...n(...s[t][r][0][1])),s[t][r][2]=[],s[t][r][2].push(...n(...s[t][r][1][0])),s[t][r][2].push(...n(...s[t][r][1][1])),s[t][r][2].push(...n(...s[t][r][1][2])),s[t][r][2].push(...n(...s[t][r][1][3]))}for(let t=0;t&lt;8;++t){r[t]=[];for(let e=0;e&lt;8;++e)r[t][e]=[],r[t][e][0]=s[t][0][2][e],r[t][e][1]=s[t][1][2][e],r[t][e][2]=s[t][2][2][e],r[t][e][3]=s[t][3][2][e]}return r};class x{constructor(t,e){this.x=t||0,this.y=e||0}toString(){return`(x=${this.x}, y=${this.y})`}clone(){return new x(this.x,this.y)}add(t){return new x(this.x+t.x,this.y+t.y)}scale(t){return void 0===t.x?new x(this.x*t,this.y*t):new x(this.x*t.x,this.y*t.y)}distSquared(t){let e=this.x-t.x,s=this.y-t.y;return e*e+s*s}transform(t){let e=this.x*t.a+this.y*t.c+t.e,s=this.x*t.b+this.y*t.d+t.f;return new x(e,s)}}class g{constructor(t,e,s,r,n,o){void 0===t?(this.a=1,this.b=0,this.c=0,this.d=1,this.e=0,this.f=0):(this.a=t,this.b=e,this.c=s,this.d=r,this.e=n,this.f=o)}toString(){return`affine: ${this.a} ${this.c} ${this.e} \n       ${this.b} ${this.d} ${this.f}`}append(t){t instanceof g||console.error(&quot;mesh.js: argument to Affine.append is not affine!&quot;);let e=this.a*t.a+this.c*t.b,s=this.b*t.a+this.d*t.b,r=this.a*t.c+this.c*t.d,n=this.b*t.c+this.d*t.d,o=this.a*t.e+this.c*t.f+this.e,i=this.b*t.e+this.d*t.f+this.f;return new g(e,s,r,n,o,i)}}class w{constructor(t,e){this.nodes=t,this.colors=e}paintCurve(t,e){if(o(this.nodes)&gt;r){const s=n(...this.nodes);let r=[[],[]],o=[[],[]];for(let t=0;t&lt;4;++t)r[0][t]=this.colors[0][t],r[1][t]=(this.colors[0][t]+this.colors[1][t])/2,o[0][t]=r[1][t],o[1][t]=this.colors[1][t];let i=new w(s[0],r),a=new w(s[1],o);i.paintCurve(t,e),a.paintCurve(t,e)}else{let s=Math.round(this.nodes[0].x);if(s&gt;=0&amp;&amp;s&lt;e){let r=4*(~~this.nodes[0].y*e+s);t[r]=Math.round(this.colors[0][0]),t[r+1]=Math.round(this.colors[0][1]),t[r+2]=Math.round(this.colors[0][2]),t[r+3]=Math.round(this.colors[0][3])}}}}class m{constructor(t,e){this.nodes=t,this.colors=e}split(){let t=[[],[],[],[]],e=[[],[],[],[]],s=[[[],[]],[[],[]]],r=[[[],[]],[[],[]]];for(let s=0;s&lt;4;++s){const r=n(this.nodes[0][s],this.nodes[1][s],this.nodes[2][s],this.nodes[3][s]);t[0][s]=r[0][0],t[1][s]=r[0][1],t[2][s]=r[0][2],t[3][s]=r[0][3],e[0][s]=r[1][0],e[1][s]=r[1][1],e[2][s]=r[1][2],e[3][s]=r[1][3]}for(let t=0;t&lt;4;++t)s[0][0][t]=this.colors[0][0][t],s[0][1][t]=this.colors[0][1][t],s[1][0][t]=(this.colors[0][0][t]+this.colors[1][0][t])/2,s[1][1][t]=(this.colors[0][1][t]+this.colors[1][1][t])/2,r[0][0][t]=s[1][0][t],r[0][1][t]=s[1][1][t],r[1][0][t]=this.colors[1][0][t],r[1][1][t]=this.colors[1][1][t];return[new m(t,s),new m(e,r)]}paint(t,e){let s,n=!1;for(let t=0;t&lt;4;++t)if((s=o([this.nodes[0][t],this.nodes[1][t],this.nodes[2][t],this.nodes[3][t]]))&gt;r){n=!0;break}if(n){let s=this.split();s[0].paint(t,e),s[1].paint(t,e)}else{new w([...this.nodes[0]],[...this.colors[0]]).paintCurve(t,e)}}}class b{constructor(t){this.readMesh(t),this.type=t.getAttribute(&quot;type&quot;)||&quot;bilinear&quot;}readMesh(t){let e=[[]],s=[[]],r=Number(t.getAttribute(&quot;x&quot;)),n=Number(t.getAttribute(&quot;y&quot;));e[0][0]=new x(r,n);let o=t.children;for(let t=0,r=o.length;t&lt;r;++t){e[3*t+1]=[],e[3*t+2]=[],e[3*t+3]=[],s[t+1]=[];let r=o[t].children;for(let n=0,o=r.length;n&lt;o;++n){let o=r[n].children;for(let r=0,i=o.length;r&lt;i;++r){let i=r;0!==t&amp;&amp;++i;let h,d=o[r].getAttribute(&quot;path&quot;),c=&quot;l&quot;;null!=d&amp;&amp;(c=(h=d.match(/\s*([lLcC])\s*(.*)/))[1]);let u=l(h[2]);switch(c){case&quot;l&quot;:0===i?(e[3*t][3*n+3]=u[0].add(e[3*t][3*n]),e[3*t][3*n+1]=a(e[3*t][3*n],e[3*t][3*n+3]),e[3*t][3*n+2]=a(e[3*t][3*n+3],e[3*t][3*n])):1===i?(e[3*t+3][3*n+3]=u[0].add(e[3*t][3*n+3]),e[3*t+1][3*n+3]=a(e[3*t][3*n+3],e[3*t+3][3*n+3]),e[3*t+2][3*n+3]=a(e[3*t+3][3*n+3],e[3*t][3*n+3])):2===i?(0===n&amp;&amp;(e[3*t+3][3*n+0]=u[0].add(e[3*t+3][3*n+3])),e[3*t+3][3*n+1]=a(e[3*t+3][3*n],e[3*t+3][3*n+3]),e[3*t+3][3*n+2]=a(e[3*t+3][3*n+3],e[3*t+3][3*n])):(e[3*t+1][3*n]=a(e[3*t][3*n],e[3*t+3][3*n]),e[3*t+2][3*n]=a(e[3*t+3][3*n],e[3*t][3*n]));break;case&quot;L&quot;:0===i?(e[3*t][3*n+3]=u[0],e[3*t][3*n+1]=a(e[3*t][3*n],e[3*t][3*n+3]),e[3*t][3*n+2]=a(e[3*t][3*n+3],e[3*t][3*n])):1===i?(e[3*t+3][3*n+3]=u[0],e[3*t+1][3*n+3]=a(e[3*t][3*n+3],e[3*t+3][3*n+3]),e[3*t+2][3*n+3]=a(e[3*t+3][3*n+3],e[3*t][3*n+3])):2===i?(0===n&amp;&amp;(e[3*t+3][3*n+0]=u[0]),e[3*t+3][3*n+1]=a(e[3*t+3][3*n],e[3*t+3][3*n+3]),e[3*t+3][3*n+2]=a(e[3*t+3][3*n+3],e[3*t+3][3*n])):(e[3*t+1][3*n]=a(e[3*t][3*n],e[3*t+3][3*n]),e[3*t+2][3*n]=a(e[3*t+3][3*n],e[3*t][3*n]));break;case&quot;c&quot;:0===i?(e[3*t][3*n+1]=u[0].add(e[3*t][3*n]),e[3*t][3*n+2]=u[1].add(e[3*t][3*n]),e[3*t][3*n+3]=u[2].add(e[3*t][3*n])):1===i?(e[3*t+1][3*n+3]=u[0].add(e[3*t][3*n+3]),e[3*t+2][3*n+3]=u[1].add(e[3*t][3*n+3]),e[3*t+3][3*n+3]=u[2].add(e[3*t][3*n+3])):2===i?(e[3*t+3][3*n+2]=u[0].add(e[3*t+3][3*n+3]),e[3*t+3][3*n+1]=u[1].add(e[3*t+3][3*n+3]),0===n&amp;&amp;(e[3*t+3][3*n+0]=u[2].add(e[3*t+3][3*n+3]))):(e[3*t+2][3*n]=u[0].add(e[3*t+3][3*n]),e[3*t+1][3*n]=u[1].add(e[3*t+3][3*n]));break;case&quot;C&quot;:0===i?(e[3*t][3*n+1]=u[0],e[3*t][3*n+2]=u[1],e[3*t][3*n+3]=u[2]):1===i?(e[3*t+1][3*n+3]=u[0],e[3*t+2][3*n+3]=u[1],e[3*t+3][3*n+3]=u[2]):2===i?(e[3*t+3][3*n+2]=u[0],e[3*t+3][3*n+1]=u[1],0===n&amp;&amp;(e[3*t+3][3*n+0]=u[2])):(e[3*t+2][3*n]=u[0],e[3*t+1][3*n]=u[1]);break;default:console.error(&quot;mesh.js: &quot;+c+&quot; invalid path type.&quot;)}if(0===t&amp;&amp;0===n||r&gt;0){let e=window.getComputedStyle(o[r]).stopColor.match(/^rgb\s*\(\s*(\d+)\s*,\s*(\d+)\s*,\s*(\d+)\s*\)$/i),a=window.getComputedStyle(o[r]).stopOpacity,h=255;a&amp;&amp;(h=Math.floor(255*a)),e&amp;&amp;(0===i?(s[t][n]=[],s[t][n][0]=Math.floor(e[1]),s[t][n][1]=Math.floor(e[2]),s[t][n][2]=Math.floor(e[3]),s[t][n][3]=h):1===i?(s[t][n+1]=[],s[t][n+1][0]=Math.floor(e[1]),s[t][n+1][1]=Math.floor(e[2]),s[t][n+1][2]=Math.floor(e[3]),s[t][n+1][3]=h):2===i?(s[t+1][n+1]=[],s[t+1][n+1][0]=Math.floor(e[1]),s[t+1][n+1][1]=Math.floor(e[2]),s[t+1][n+1][2]=Math.floor(e[3]),s[t+1][n+1][3]=h):3===i&amp;&amp;(s[t+1][n]=[],s[t+1][n][0]=Math.floor(e[1]),s[t+1][n][1]=Math.floor(e[2]),s[t+1][n][2]=Math.floor(e[3]),s[t+1][n][3]=h))}}e[3*t+1][3*n+1]=new x,e[3*t+1][3*n+2]=new x,e[3*t+2][3*n+1]=new x,e[3*t+2][3*n+2]=new x,e[3*t+1][3*n+1].x=(-4*e[3*t][3*n].x+6*(e[3*t][3*n+1].x+e[3*t+1][3*n].x)+-2*(e[3*t][3*n+3].x+e[3*t+3][3*n].x)+3*(e[3*t+3][3*n+1].x+e[3*t+1][3*n+3].x)+-1*e[3*t+3][3*n+3].x)/9,e[3*t+1][3*n+2].x=(-4*e[3*t][3*n+3].x+6*(e[3*t][3*n+2].x+e[3*t+1][3*n+3].x)+-2*(e[3*t][3*n].x+e[3*t+3][3*n+3].x)+3*(e[3*t+3][3*n+2].x+e[3*t+1][3*n].x)+-1*e[3*t+3][3*n].x)/9,e[3*t+2][3*n+1].x=(-4*e[3*t+3][3*n].x+6*(e[3*t+3][3*n+1].x+e[3*t+2][3*n].x)+-2*(e[3*t+3][3*n+3].x+e[3*t][3*n].x)+3*(e[3*t][3*n+1].x+e[3*t+2][3*n+3].x)+-1*e[3*t][3*n+3].x)/9,e[3*t+2][3*n+2].x=(-4*e[3*t+3][3*n+3].x+6*(e[3*t+3][3*n+2].x+e[3*t+2][3*n+3].x)+-2*(e[3*t+3][3*n].x+e[3*t][3*n+3].x)+3*(e[3*t][3*n+2].x+e[3*t+2][3*n].x)+-1*e[3*t][3*n].x)/9,e[3*t+1][3*n+1].y=(-4*e[3*t][3*n].y+6*(e[3*t][3*n+1].y+e[3*t+1][3*n].y)+-2*(e[3*t][3*n+3].y+e[3*t+3][3*n].y)+3*(e[3*t+3][3*n+1].y+e[3*t+1][3*n+3].y)+-1*e[3*t+3][3*n+3].y)/9,e[3*t+1][3*n+2].y=(-4*e[3*t][3*n+3].y+6*(e[3*t][3*n+2].y+e[3*t+1][3*n+3].y)+-2*(e[3*t][3*n].y+e[3*t+3][3*n+3].y)+3*(e[3*t+3][3*n+2].y+e[3*t+1][3*n].y)+-1*e[3*t+3][3*n].y)/9,e[3*t+2][3*n+1].y=(-4*e[3*t+3][3*n].y+6*(e[3*t+3][3*n+1].y+e[3*t+2][3*n].y)+-2*(e[3*t+3][3*n+3].y+e[3*t][3*n].y)+3*(e[3*t][3*n+1].y+e[3*t+2][3*n+3].y)+-1*e[3*t][3*n+3].y)/9,e[3*t+2][3*n+2].y=(-4*e[3*t+3][3*n+3].y+6*(e[3*t+3][3*n+2].y+e[3*t+2][3*n+3].y)+-2*(e[3*t+3][3*n].y+e[3*t][3*n+3].y)+3*(e[3*t][3*n+2].y+e[3*t+2][3*n].y)+-1*e[3*t][3*n].y)/9}}this.nodes=e,this.colors=s}paintMesh(t,e){let s=(this.nodes.length-1)/3,r=(this.nodes[0].length-1)/3;if(&quot;bilinear&quot;===this.type||s&lt;2||r&lt;2){let n;for(let o=0;o&lt;s;++o)for(let s=0;s&lt;r;++s){let r=[];for(let t=3*o,e=3*o+4;t&lt;e;++t)r.push(this.nodes[t].slice(3*s,3*s+4));let i=[];i.push(this.colors[o].slice(s,s+2)),i.push(this.colors[o+1].slice(s,s+2)),(n=new m(r,i)).paint(t,e)}}else{let n,o,a,h,l,d,u;const x=s,g=r;s++,r++;let w=new Array(s);for(let t=0;t&lt;s;++t){w[t]=new Array(r);for(let e=0;e&lt;r;++e)w[t][e]=[],w[t][e][0]=this.nodes[3*t][3*e],w[t][e][1]=this.colors[t][e]}for(let t=0;t&lt;s;++t)for(let e=0;e&lt;r;++e)0!==t&amp;&amp;t!==x&amp;&amp;(n=i(w[t-1][e][0],w[t][e][0]),o=i(w[t+1][e][0],w[t][e][0]),w[t][e][2]=c(w[t-1][e][1],w[t][e][1],w[t+1][e][1],n,o)),0!==e&amp;&amp;e!==g&amp;&amp;(n=i(w[t][e-1][0],w[t][e][0]),o=i(w[t][e+1][0],w[t][e][0]),w[t][e][3]=c(w[t][e-1][1],w[t][e][1],w[t][e+1][1],n,o));for(let t=0;t&lt;r;++t){w[0][t][2]=[],w[x][t][2]=[];for(let e=0;e&lt;4;++e)n=i(w[1][t][0],w[0][t][0]),o=i(w[x][t][0],w[x-1][t][0]),w[0][t][2][e]=n&gt;0?2*(w[1][t][1][e]-w[0][t][1][e])/n-w[1][t][2][e]:0,w[x][t][2][e]=o&gt;0?2*(w[x][t][1][e]-w[x-1][t][1][e])/o-w[x-1][t][2][e]:0}for(let t=0;t&lt;s;++t){w[t][0][3]=[],w[t][g][3]=[];for(let e=0;e&lt;4;++e)n=i(w[t][1][0],w[t][0][0]),o=i(w[t][g][0],w[t][g-1][0]),w[t][0][3][e]=n&gt;0?2*(w[t][1][1][e]-w[t][0][1][e])/n-w[t][1][3][e]:0,w[t][g][3][e]=o&gt;0?2*(w[t][g][1][e]-w[t][g-1][1][e])/o-w[t][g-1][3][e]:0}for(let s=0;s&lt;x;++s)for(let r=0;r&lt;g;++r){let n=i(w[s][r][0],w[s+1][r][0]),o=i(w[s][r+1][0],w[s+1][r+1][0]),c=i(w[s][r][0],w[s][r+1][0]),x=i(w[s+1][r][0],w[s+1][r+1][0]),g=[[],[],[],[]];for(let t=0;t&lt;4;++t){(d=[])[0]=w[s][r][1][t],d[1]=w[s+1][r][1][t],d[2]=w[s][r+1][1][t],d[3]=w[s+1][r+1][1][t],d[4]=w[s][r][2][t]*n,d[5]=w[s+1][r][2][t]*n,d[6]=w[s][r+1][2][t]*o,d[7]=w[s+1][r+1][2][t]*o,d[8]=w[s][r][3][t]*c,d[9]=w[s+1][r][3][t]*x,d[10]=w[s][r+1][3][t]*c,d[11]=w[s+1][r+1][3][t]*x,d[12]=0,d[13]=0,d[14]=0,d[15]=0,u=f(d);for(let e=0;e&lt;9;++e){g[t][e]=[];for(let s=0;s&lt;9;++s)g[t][e][s]=p(u,e/8,s/8),g[t][e][s]&gt;255?g[t][e][s]=255:g[t][e][s]&lt;0&amp;&amp;(g[t][e][s]=0)}}h=[];for(let t=3*s,e=3*s+4;t&lt;e;++t)h.push(this.nodes[t].slice(3*r,3*r+4));l=y(h);for(let s=0;s&lt;8;++s)for(let r=0;r&lt;8;++r)(a=new m(l[s][r],[[[g[0][s][r],g[1][s][r],g[2][s][r],g[3][s][r]],[g[0][s][r+1],g[1][s][r+1],g[2][s][r+1],g[3][s][r+1]]],[[g[0][s+1][r],g[1][s+1][r],g[2][s+1][r],g[3][s+1][r]],[g[0][s+1][r+1],g[1][s+1][r+1],g[2][s+1][r+1],g[3][s+1][r+1]]]])).paint(t,e)}}}transform(t){if(t instanceof x)for(let e=0,s=this.nodes.length;e&lt;s;++e)for(let s=0,r=this.nodes[0].length;s&lt;r;++s)this.nodes[e][s]=this.nodes[e][s].add(t);else if(t instanceof g)for(let e=0,s=this.nodes.length;e&lt;s;++e)for(let s=0,r=this.nodes[0].length;s&lt;r;++s)this.nodes[e][s]=this.nodes[e][s].transform(t)}scale(t){for(let e=0,s=this.nodes.length;e&lt;s;++e)for(let s=0,r=this.nodes[0].length;s&lt;r;++s)this.nodes[e][s]=this.nodes[e][s].scale(t)}}document.querySelectorAll(&quot;rect,circle,ellipse,path,text&quot;).forEach((r,n)=&gt;{let o=r.getAttribute(&quot;id&quot;);o||(o=&quot;patchjs_shape&quot;+n,r.setAttribute(&quot;id&quot;,o));const i=r.style.fill.match(/^url\(\s*&quot;?\s*#([^\s&quot;]+)&quot;?\s*\)/),a=r.style.stroke.match(/^url\(\s*&quot;?\s*#([^\s&quot;]+)&quot;?\s*\)/);if(i&amp;&amp;i[1]){const a=document.getElementById(i[1]);if(a&amp;&amp;&quot;meshgradient&quot;===a.nodeName){const i=r.getBBox();let l=document.createElementNS(s,&quot;canvas&quot;);d(l,{width:i.width,height:i.height});const c=l.getContext(&quot;2d&quot;);let u=c.createImageData(i.width,i.height);const f=new b(a);&quot;objectBoundingBox&quot;===a.getAttribute(&quot;gradientUnits&quot;)&amp;&amp;f.scale(new x(i.width,i.height));const p=a.getAttribute(&quot;gradientTransform&quot;);null!=p&amp;&amp;f.transform(h(p)),&quot;userSpaceOnUse&quot;===a.getAttribute(&quot;gradientUnits&quot;)&amp;&amp;f.transform(new x(-i.x,-i.y)),f.paintMesh(u.data,l.width),c.putImageData(u,0,0);const y=document.createElementNS(t,&quot;image&quot;);d(y,{width:i.width,height:i.height,x:i.x,y:i.y});let g=l.toDataURL();y.setAttributeNS(e,&quot;xlink:href&quot;,g),r.parentNode.insertBefore(y,r),r.style.fill=&quot;none&quot;;const w=document.createElementNS(t,&quot;use&quot;);w.setAttributeNS(e,&quot;xlink:href&quot;,&quot;#&quot;+o);const m=&quot;patchjs_clip&quot;+n,M=document.createElementNS(t,&quot;clipPath&quot;);M.setAttribute(&quot;id&quot;,m),M.appendChild(w),r.parentElement.insertBefore(M,r),y.setAttribute(&quot;clip-path&quot;,&quot;url(#&quot;+m+&quot;)&quot;),u=null,l=null,g=null}}if(a&amp;&amp;a[1]){const o=document.getElementById(a[1]);if(o&amp;&amp;&quot;meshgradient&quot;===o.nodeName){const i=parseFloat(r.style.strokeWidth.slice(0,-2))*(parseFloat(r.style.strokeMiterlimit)||parseFloat(r.getAttribute(&quot;stroke-miterlimit&quot;))||1),a=r.getBBox(),l=Math.trunc(a.width+i),c=Math.trunc(a.height+i),u=Math.trunc(a.x-i/2),f=Math.trunc(a.y-i/2);let p=document.createElementNS(s,&quot;canvas&quot;);d(p,{width:l,height:c});const y=p.getContext(&quot;2d&quot;);let g=y.createImageData(l,c);const w=new b(o);&quot;objectBoundingBox&quot;===o.getAttribute(&quot;gradientUnits&quot;)&amp;&amp;w.scale(new x(l,c));const m=o.getAttribute(&quot;gradientTransform&quot;);null!=m&amp;&amp;w.transform(h(m)),&quot;userSpaceOnUse&quot;===o.getAttribute(&quot;gradientUnits&quot;)&amp;&amp;w.transform(new x(-u,-f)),w.paintMesh(g.data,p.width),y.putImageData(g,0,0);const M=document.createElementNS(t,&quot;image&quot;);d(M,{width:l,height:c,x:0,y:0});let S=p.toDataURL();M.setAttributeNS(e,&quot;xlink:href&quot;,S);const k=&quot;pattern_clip&quot;+n,A=document.createElementNS(t,&quot;pattern&quot;);d(A,{id:k,patternUnits:&quot;userSpaceOnUse&quot;,width:l,height:c,x:u,y:f}),A.appendChild(M),o.parentNode.appendChild(A),r.style.stroke=&quot;url(#&quot;+k+&quot;)&quot;,g=null,p=null,S=null}}})}();
</script>
</svg>
